<svg width="35" height="35" viewBox="0 0 35 35" fill="none" xmlns="http://www.w3.org/2000/svg">
<rect width="35" height="35" rx="10" fill="#E3F0FC"/>
<path d="M11.3333 7.73371L6 14.6632L11.3333 16.8137L14.4444 8.6895L11.3333 7.73371Z" fill="#2F82FF"/>
<path d="M14.4444 8.6895L11.3333 16.8137H24.6667L21.5556 8.6895H14.4444Z" fill="#2F82FF"/>
<path d="M11.3333 16.8137L18 29L24.6667 16.8137H11.3333Z" fill="#2F82FF"/>
<path d="M6 14.6632L18 29L11.3333 16.8137L6 14.6632Z" fill="#2F82FF"/>
<path d="M18 29L30 14.6632L24.6667 16.8137L18 29Z" fill="#2F82FF"/>
<path d="M30 14.6632L24.6667 7.73371L21.5556 8.6895L24.6667 16.8137L30 14.6632Z" fill="#2F82FF"/>
<path d="M11.3333 7.73371L14.4444 8.6895H21.5556L24.6667 7.73371L18 7L11.3333 7.73371Z" fill="#2F82FF"/>
<path d="M11.3333 7.73371L6 14.6632L11.3333 16.8137L14.4444 8.6895L11.3333 7.73371Z" fill="url(#paint0_linear_64_157)" style="mix-blend-mode:soft-light"/>
<path d="M14.4444 8.6895L11.3333 16.8137H24.6667L21.5556 8.6895H14.4444Z" fill="url(#paint1_linear_64_157)" style="mix-blend-mode:plus-lighter"/>
<path d="M11.3333 16.8137L18 29L24.6667 16.8137H11.3333Z" fill="url(#paint2_linear_64_157)" style="mix-blend-mode:overlay"/>
<path d="M6 14.6632L18 29L11.3333 16.8137L6 14.6632Z" fill="url(#paint3_linear_64_157)" style="mix-blend-mode:soft-light"/>
<path d="M18 29L30 14.6632L24.6667 16.8137L18 29Z" fill="url(#paint4_linear_64_157)" style="mix-blend-mode:overlay"/>
<path d="M30 14.6632L24.6667 7.73371L21.5556 8.6895L24.6667 16.8137L30 14.6632Z" fill="url(#paint5_linear_64_157)" style="mix-blend-mode:soft-light"/>
<path d="M11.3333 7.73371L14.4444 8.6895H21.5556L24.6667 7.73371L18 7L11.3333 7.73371Z" fill="url(#paint6_linear_64_157)" style="mix-blend-mode:soft-light"/>
<defs>
<linearGradient id="paint0_linear_64_157" x1="14.4" y1="8.68235" x2="10.8691" y2="16.5382" gradientUnits="userSpaceOnUse">
<stop stop-color="#494949"/>
<stop offset="1" stop-color="#E9E9E9"/>
</linearGradient>
<linearGradient id="paint1_linear_64_157" x1="18" y1="8.43478" x2="18" y2="16.8043" gradientUnits="userSpaceOnUse">
<stop stop-color="white" stop-opacity="0.8"/>
<stop offset="1" stop-color="white" stop-opacity="0"/>
</linearGradient>
<linearGradient id="paint2_linear_64_157" x1="18" y1="16.8043" x2="18" y2="29" gradientUnits="userSpaceOnUse">
<stop stop-color="#4C4C4C"/>
<stop offset="1" stop-color="#B8B8B8"/>
</linearGradient>
<linearGradient id="paint3_linear_64_157" x1="11.3333" y1="16.8043" x2="18.7518" y2="28.5241" gradientUnits="userSpaceOnUse">
<stop stop-color="#565656"/>
<stop offset="1" stop-color="#FAFAFA"/>
</linearGradient>
<linearGradient id="paint4_linear_64_157" x1="24.8842" y1="16.9" x2="17.2554" y2="28.5108" gradientUnits="userSpaceOnUse">
<stop stop-color="#323232"/>
<stop offset="1" stop-color="#9A9A9A"/>
</linearGradient>
<linearGradient id="paint5_linear_64_157" x1="21.3333" y1="8.19565" x2="25.1051" y2="16.6078" gradientUnits="userSpaceOnUse">
<stop stop-color="#494949"/>
<stop offset="1" stop-color="#999999"/>
</linearGradient>
<linearGradient id="paint6_linear_64_157" x1="18" y1="7.25581" x2="18" y2="8.67391" gradientUnits="userSpaceOnUse">
<stop stop-color="#7C7C7C"/>
<stop offset="1" stop-color="white"/>
</linearGradient>
</defs>
</svg>
