<svg width="35" height="36" viewBox="0 0 35 36" fill="none" xmlns="http://www.w3.org/2000/svg">
<rect y="0.144043" width="35" height="35.2652" rx="10" fill="#E6FFE8"/>
<rect width="20" height="20" transform="translate(8 8)" fill="#E6FFE8"/>
<path d="M17.1667 17.1496C17.1667 16.6893 17.5398 16.3162 18.0001 16.3162C18.4603 16.3162 18.8334 16.6893 18.8334 17.1496V22.1496C18.8334 22.6098 18.4603 22.9829 18.0001 22.9829C17.5398 22.9829 17.1667 22.6098 17.1667 22.1496V17.1496Z" fill="#7CD48D"/>
<path d="M18.0001 13.0427C17.5398 13.0427 17.1667 13.4158 17.1667 13.876C17.1667 14.3363 17.5398 14.7094 18.0001 14.7094C18.4603 14.7094 18.8334 14.3363 18.8334 13.876C18.8334 13.4158 18.4603 13.0427 18.0001 13.0427Z" fill="#7CD48D"/>
<path fill-rule="evenodd" clip-rule="evenodd" d="M18.0001 9.66675C13.3977 9.66675 9.66675 13.3977 9.66675 18.0001C9.66675 22.6025 13.3977 26.3334 18.0001 26.3334C22.6025 26.3334 26.3334 22.6025 26.3334 18.0001C26.3334 13.3977 22.6025 9.66675 18.0001 9.66675ZM11.3334 18.0001C11.3334 21.682 14.3182 24.6667 18.0001 24.6667C21.682 24.6667 24.6667 21.682 24.6667 18.0001C24.6667 14.3182 21.682 11.3334 18.0001 11.3334C14.3182 11.3334 11.3334 14.3182 11.3334 18.0001Z" fill="#7CD48D"/>
</svg>
