<svg width="35" height="36" viewBox="0 0 35 36" fill="none" xmlns="http://www.w3.org/2000/svg">
<rect width="35" height="35" rx="10" fill="#F4EEFA"/>
<path d="M29.25 14.5715H26.25V14.5001C26.25 11.3572 24 8.78577 21.25 8.78577H14.75C12 8.78577 9.75 11.3572 9.75 14.5001V14.5715H6.75C6.375 14.5715 6.125 14.8572 6.125 15.2858C6.125 15.7143 6.375 16.0001 6.75 16.0001H9.25C8.8125 16.6429 8.625 17.3572 8.625 18.1429V25.2858C8.625 26.5001 9.4375 27.4286 10.5 27.4286C11.5625 27.4286 12.375 26.5001 12.375 25.2858V24.5715H23.625V25.2858C23.625 26.5001 24.4375 27.4286 25.5 27.4286C26.5625 27.4286 27.375 26.5001 27.375 25.2858V18.1429C27.375 17.3572 27.125 16.6429 26.75 16.0001H29.25C29.625 16.0001 29.875 15.7143 29.875 15.2858C29.875 14.8572 29.625 14.5715 29.25 14.5715ZM10.9375 14.5001C10.9375 12.1429 12.625 10.2143 14.6875 10.2143H21.25C23.3125 10.2143 25 12.1429 25 14.5001V14.5715L10.9375 14.5001V14.5001ZM11.75 23.1429C10.6875 23.1429 9.875 22.2143 9.875 21.0001V18.1429C9.875 16.9286 10.6875 16.0001 11.75 16.0001H24.25C25.3125 16.0001 26.125 16.9286 26.125 18.1429V21.0001C26.125 22.2143 25.3125 23.1429 24.25 23.1429H11.75Z" fill="#8101D0"/>
<path d="M13 21C13.6904 21 14.25 20.3604 14.25 19.5714C14.25 18.7824 13.6904 18.1428 13 18.1428C12.3096 18.1428 11.75 18.7824 11.75 19.5714C11.75 20.3604 12.3096 21 13 21Z" fill="#8101D0"/>
<path d="M23 21C23.6904 21 24.25 20.3604 24.25 19.5714C24.25 18.7824 23.6904 18.1428 23 18.1428C22.3096 18.1428 21.75 18.7824 21.75 19.5714C21.75 20.3604 22.3096 21 23 21Z" fill="#8101D0"/>
</svg>
