<svg width="35" height="35" viewBox="0 0 35 35" fill="none" xmlns="http://www.w3.org/2000/svg">
<rect width="35" height="35" rx="10" fill="#F4EEFA"/>
<path d="M26 11H23.8255C23.9365 10.687 24 10.351 24 10C24 8.343 22.657 7 21 7C19.343 7 18 8.343 18 10C18 10.2275 18.0275 10.4485 18.0755 10.6615L18 10.586L17.9245 10.6615C17.9725 10.4485 18 10.2275 18 10C18 8.343 16.657 7 15 7C13.343 7 12 8.343 12 10C12 10.351 12.0635 10.687 12.1745 11H10C8.9 11 8 11.9 8 13V18.5V20.5V25C8 26.1 8.9 27 10 27H17H19H26C27.1 27 28 26.1 28 25V13C28 11.9 27.1 11 26 11ZM15 9C15.5515 9 16 9.4485 16 10C16 10.5515 15.5515 11 15 11C14.4485 11 14 10.5515 14 10C14 9.4485 14.4485 9 15 9ZM17 25H10V20.5H17V25ZM17 18.5H10V13H15.586L12.586 16L14 17.414L17 14.414V18.5ZM21 9C21.5515 9 22 9.4485 22 10C22 10.5515 21.5515 11 21 11C20.4485 11 20 10.5515 20 10C20 9.4485 20.4485 9 21 9ZM26 25H19V20.5H26V25ZM26 18.5H19V14.414L22 17.414L23.414 16L20.414 13H26V18.5Z" fill="#8101D0"/>
</svg>
