<svg width="35" height="35" viewBox="0 0 35 35" fill="none" xmlns="http://www.w3.org/2000/svg">
<rect width="35" height="35" rx="10" fill="#F4EEFA"/>
<path d="M17.0097 18.4411C17.3791 18.2651 17.4151 17.7179 17.0721 17.4923L11.0433 13.5262C10.9649 13.4747 10.8747 13.4474 10.7826 13.4474L10.6569 13.4474L10.6584 13.1491L10.6569 13.4474C10.189 13.4474 9.97369 14.0748 10.3312 14.3965L15.3427 18.907C15.4886 19.0383 15.6919 19.0688 15.8667 18.9855L17.0097 18.4411Z" fill="#8101D0" stroke="#8101D0" stroke-width="0.576811"/>
<path d="M11.2694 23.0761C11.6025 22.8591 11.5899 22.3366 11.2468 22.1424L8.65802 20.6761C8.54358 20.6113 8.40991 20.5968 8.28517 20.6357L6.65264 21.1443C6.24693 21.2707 6.15738 21.8449 6.50331 22.1019L9.16237 24.0774C9.32441 24.1978 9.53781 24.2043 9.70711 24.094L11.2694 23.0761Z" fill="#8101D0" stroke="#8101D0" stroke-width="0.576811"/>
<path d="M26.7162 10.7344C27.3585 10.231 28.2507 10.3612 28.7241 11.0274C29.2122 11.7143 29.0685 12.7056 28.4058 13.2239L14.1338 24.386L10.6172 25.1761L9.43893 24.273L26.7162 10.7344Z" fill="#8101D0" stroke="#8101D0" stroke-width="0.576811"/>
</svg>
